<mxfile host="65bd71144e">
    <diagram id="HIP3nbAZw_EuaXWnEj3U" name="Page-1">
        <mxGraphModel dx="537" dy="375" grid="1" gridSize="10" guides="1" tooltips="1" connect="1" arrows="1" fold="1" page="1" pageScale="1" pageWidth="850" pageHeight="1100" math="0" shadow="0">
            <root>
                <mxCell id="0"/>
                <mxCell id="1" parent="0"/>
                <mxCell id="18" value="http://ics2o.mths.ca" style="swimlane;whiteSpace=wrap;html=1;" vertex="1" parent="1">
                    <mxGeometry x="45" y="20" width="760" height="390" as="geometry"/>
                </mxCell>
                <mxCell id="19" value="Your triangle is an isosceles triangle." style="text;html=1;align=left;verticalAlign=middle;resizable=0;points=[];autosize=1;strokeColor=none;fillColor=none;fontSize=15;fontColor=light-dark(#000000,#FFFFFF);" vertex="1" parent="18">
                    <mxGeometry x="30" y="320" width="260" height="30" as="geometry"/>
                </mxCell>
                <mxCell id="20" value="Determine Type" style="rounded=1;whiteSpace=wrap;html=1;fontSize=20;" vertex="1" parent="18">
                    <mxGeometry x="30" y="260" width="190" height="40" as="geometry"/>
                </mxCell>
                <mxCell id="21" value="Number..." style="rounded=1;whiteSpace=wrap;html=1;align=left;" vertex="1" parent="18">
                    <mxGeometry x="30" y="180" width="300" height="20" as="geometry"/>
                </mxCell>
                <mxCell id="22" value="Number..." style="rounded=1;whiteSpace=wrap;html=1;align=left;" vertex="1" parent="18">
                    <mxGeometry x="30" y="220" width="300" height="20" as="geometry"/>
                </mxCell>
                <mxCell id="23" value="" style="shape=image;verticalLabelPosition=bottom;labelBackgroundColor=default;verticalAlign=top;aspect=fixed;imageAspect=0;image=data:image/png,iVBORw0KGgoAAAANSUhEUgAAAVQAAADnCAMAAAB2ZV7oAAAAA3NCSVQICAjb4U/gAAAAXVBMVEX+/v7f3/7R0P4nIv1GQf0XEf3v7v0JA/3Bv/6DgP6ioP5UUP41MP1kYf2SkP6ysP50cP0GBgb39/7o5/4+Of27u7uEhIQ+Pj4jIyPg4OBnZ2eenp7Ozs5QUFDHx8dZLYqfAAAXtklEQVR4nO1dh3qrOgzGGC92OtKm477/Y17JNmBmGCb0tPzfGQkrIGRZ20Fw4sSJEydOnDhx4sSJEydOnDhx4sSJEyd+KbjkR9/C74MU8uhb+A2QRBLnW4+oRRCS4MQ0CqWK+guPqZBKJPUWIGqswmZ/TkUA+x1KSxWfEqKDVKRMlOYzyRjSEylHc0MpKRhjIjb7w0wgPfX+ipKJoIKdVG0hRoKlTH/OBCvtyJbwWVNSioTzej9Vdn+RCKb5Nxd5QKqXcqJCGCsY0oik5s+AlJY9Jf6nRGj2pxV/Ik/rbaWALWHvon8bPBUiigxRNX9mQKEiqnlWIu0KO1vJxGyPYb/l2Sg95LZ/NhRyYkVU4EDFcKKqJSYQtcBxX/EicjCck8bVCYkA4mbn8G8hB6LlQjhbYiLduV1QGTPabOBx4O6PRUZiEQcnHHAqBEvEqFSUohRAt/ELgCYgkj3u7J9GeM9kInd0/fBUqE6cOHFiPk7d3j/A/D/6Fn4deCLGNa4TqyBfBBX50Xfxu0AiEUkRHX0bvwphIlIZMHH/yBNzEaYieUavyRmo8oZn4FOco+LTC+0NEvhUz/vP4vSaegKHOerZfKTi6dh7+S1QkXipRGkmislj/y3w2MaPiUTYEId6wCMSJpLap1eIbP9ffBQIo5FREpVAKPMxZbsrjkBT1ry6J0Enjv3HEEc8yDtKIgfSynTnJBGYo1oO/1Q87/uDj0ScUBNAkgqBMk4+wBIHe/9FMRHVsafyF4WhclEWShM1jhD4ZJqou2baPIG9H8mnGKNPuXwOnmX+8oviUEmKgfn2Ni4ynos9hz950XYUpgE42PEHHwvJmEi7BCyonbF2grH3ze+rCH5M0Eilv8n9J4dYctf4Jdr7/R/Nd32Pvx3c2vsVCqMUh+LloBv6BUB733VJSaaY/n66/1bjubH3Dco8UHrgn+6/tZDNHGURSdDm8IM/9x/5W28nfHHsfYOoCHJt9z97s1TVDxIk+2uKpDNHIcoyyMy8T4UnneMHEZWIXRX+wPFJuwgptRn9K9x/TY1GqJ1spiYLiBrnVRq8gflC3JKNhyAXOweKn8HeH3ptlQSUi91/To1GZKwyfS0lKLUVA4FrrYVM0Ae7GJN900CfJMaip/z7T0sTVdwajTanlgGxzkuXUyNGquqCR2Fn85u4c5RxicEjWseYQc9evoumRsOFJlzS366Z5qF1byGWO+z3FsOWLoUuMSZCIqxjzEAtlD9ujUZ7+Af1bOUO/8cbwvBEO5rfsmfvE6aCos1N4UL549ZotId/iGxvftgZ/hjiINEjg2EvgpDdzO+uvR+YUh5Fs8T1TS+UP/0aDQMlojAemJESEZPkocWDOEvsZH4bn3R7W4gjNWIqc4f8QvkzVqOhBJZr9YnHM2bLDB8Erc9knszvOkRr0LP3ARlmT3BiP1gslj+jNRpkmB/5Yw1YHSPyZH43IVqNvr0PYMigOPOXjnG6n/w5BtpG5H7M73aI1uagtUH0mMgoJ9R9j7/L/WfJ6cn8rkO0QZOD1obUP0RAJ2rJPk/yRxY/wk9lB76fQHEToh2x9xt0ZJ8f+fME5utPSM2yLLLc/B6CE6LFHLQFNkwtf3iRrzd9YtD2f0IWQSXMvNSJ1CFatPdfJu39LqhJVIF3Eq2myzMFlYoen/BST7svftx/NkRL+j7pO7DyB9MOyrWDRomX55cfEJutFcSl5vckwiFdahrSWKrZhhzgED0A8gdUEdWmTOGxTuTOHDUMI38yEK3hSiM9EdlT8JQdn0YEgj18egrjMvXn/uMjPulpGPmTA7Ml616vFAyvQNjRwdmwSWhinoaNzUFbfJ6VP2Cl01VEAXVK2QsdrFaBaE8ZIM1y5UnCk2jpHGUQWvnDV77bXFDzs/zoMkLH5U781ImsmKMstsmf57pvGGir7Ei1qhUcYj7qRIZz0GZhW6JKKaLq9p+iQ4uzWlUMPupEhu39edgUfghdTSo8VK1q0dFDnUg3B20RNtWpJa2bP1Stavmmtrv/hnzSC7BB/hRtMQoC9rDqrE4SE91YJyKdmrM1WC9/ehN+rQo8Hh1/20b3H85Rm55kvfzJRdr+ZZ4eplZ15lu5SRKR1bpUhdXyh4heeLHYPT9sDN0Yxhb33yp7v4O1dWpY6kLLVpZ2yQ4qz3ST7XX+/ct6TWSdvd/BSvkDGpR6wZi1KkIOFlmhEoaG9yFqlaMYmvz71e6/+zlos7BS/qCuT/LIrcwSUZ4d057FyWAw+ffh2vuoas7WoahzBVbJH6tOPQGDpsihLAWWfTpKrXIewebfrwwUr7f3EXWVyuJEFY1R/8khapU72Gz+/Trzu52DVixtGVBXqZje3kuhxMsw7Z6OiKy404LNv18VKG7noDl8NxN1lUqwRv4QMcoI8gC1ylVgbP79GvO7Y+87fDcTdZVKsEb+gJnfnyDNaHlKHq5WdVpCGLosbxPTtfcdvpuJpkplhfwZ5MZqtExw8U4wRqEOKZN6vZ3F5ncvB83lu3loqlSWy59huVmPFpC3j42sIP0IS1kM5KWsWg5i4YDp56C5fDcXzVtZKn/iwRm+Hi2gGTw2YQVHeh4FeRqwIkgsgyxsEzNQc+by3cq7mg8nhuKiGS0PjqxYnojTLBDYKcpuXmR+D9v7M8VYnODCHzJrlv2B+SVaprE7MZTW5nq0PDiyYqVXxLLQJeoS8/t5WQ5aCzxNFc2wgiKqJhPbAmSB/AlHJiJntDw2YcXMswRmSE3Uyg6Yb36jvU8bez/E19KujppCDJO2jIIEfi2yI1U3qymWWKo6JaW+osv5zU08NLKiNcIsAvWDszyIaktm9kMRdAzVbM2xVKxTHTWFMsqxPIWpapTEtq3Sgjo1m5Jifr/P+fY2H5iwYmwXAuNEwfOwxnE+1/wGe58mDVUzfEnFfNUduDxhma4aUzg3Ak1NAzA1W/7UKSmIPudXeGDCSuXlM41oHDrODBRre/85q1J0Coap/t3qqAlEQIRYcE1UGBuSiszMkPPlT8th0uP8Gg9MWBn1R89rE2N90iQy8wpIECn61VETQPaUIkwV0gMlXz3lzZU/pKUodDnfQeFIiX0xfutzzO86By02829EZS4k71ZHTaCAUZ6xIKMh2JQ4R9ccPlf+tNWpDue7eJhaNTHIZpjf2Pe8XtwQpYWtue1WR01BUSQkBzUqQmHU3M5M+dPJQulw/tShu2FCHb1vfrs+aVU563D496qjJmEuoVdPihyhMbNOrcN+bc7voHxMZGUib+Jum5iWvS+ro5Goveqo+bfjjI5Z7r+ia3+2OL+Dx0RWJiPsd+rU2jloz+0EyJHK0HsQ7jue4/4bmtIdzu/iIZGVSWfUtPuva+97yWpvrwQ4Y17ppaRMY7+EFafCeZJuVZ3aYJlY1yf97ImozjVr+TPu2iFLx/NeapVb4TyZX2czgYfLxFLxCNx7lsEYyhT2iqw4Fc53MtFTWycyVCYW3afIDkRtrRS+SkfqnOJt6fCmwvmOKmhM2BEt/ohyGnelcMQabb6lVmWC+SnGcSqcJxYzRZg2MVvKxPzC7UJlvq9w57tBghBkAac+dFenwvme0NL7N5SJeUerC9XzusBT3JQC58hUfkpx6ybUd1MWjPm9ukysj3DTy2mtFD6RknLnKk3g1WefxaoJ9d3kPitz15aJDfzypqdorxS+OpjfpAgovILyGxG4W4XuvU2MFDxfL57bXagyN4ayBE9ZpVbBUCVF30WwCfc9lr7bxEjB0vX+t1YXKrlejW8iKwUKFK+G64zOHr7aVDU/WcCYWz81NF2oNqXyOQkroWcDa0YU2vcicdqF5eVFDaekzMSOCSszuiV5alNVA4ka+iDqSErKXOyWsDKrrfbWOrUOpCh54qPz1UhKylzsFlmZNbQ9r2ckRSSoB+tsc2Bkr8jKrBTQbXVqg1f0cZHtvqadElbmqUs/cjnzDepUhX0SVmYq9p7aVHmFF//9wpjB3IvO0vO8tqnyBC+Rpl0SVmbmKqyuU9sPi2Mow9gjsjI3pvTzFolbHEMZxg6RldnT+riSQOQQr8upkUlsK3N9Ih8/NJwYRd60If9q1WxZOSZ7Qwz9DZSfTU6qysaetEiR44dGEzLHn97uPWFldk7tWJ1IynIZD1i6k0QFTs1FbjmVqNFbmCBqLyVlPXwnrCxYpWQkjK0Fko4a2ZVzQqUwLxyJKvUnosJcoUHGYydX3fCnKvI4RKKa+KhUxOSzkzjnsdREJfkQ0b1O2p4TVhbUSY0kXFAWm2fWK+covEGKbwpoFmOMskQPO+wpUa2kglbiyxAVZUAMnyITH1VwBtP1XIIyppCo+rJ9X6fyqV7y1Gsp8IKKvhH6w0MLilloLCVBxvSaOhgjFJIjLUohJT5/xLT4JrTy3liiMkIkHpLr5TgwhRLDmonAVXg0UVNQeGRPfHouiPRbCrygSfqo+68occ0njg+OWb5EqkgTVYpIqUwoqTNvBXCjUioVde2NJmpiP5n4qMJ3DJRkiVldHD4KCmf1lm73pE5V8KpWdWaf6dL8wTq1UI+bQpTS+rFKIVJD1Bg+YHWKJhoSlelFru34t0RV+hOPTHxUhzWRkqXZp4mKJ3U41XuRuU/Ob7v9RkvzDbEH3X+FkR8swYSEQEYxJqTGllOBYlyRmqjIpEV1jRZRtWKXNERlKaqPhqjIpHnntl68u0FLf6XAbY1+rDTfEnvYToD5RMoE6E1pTCJK4HFDamQqgy2JCCuixiIhsh7ILaJW8dGKqKXIisgQNRI56TaoGHbYL26B4Z63MYTgou32GyvNr4g9qH5p5R8fOswEOp6x9jEDymKPbZjDWB5URNW70mrYtoe/jY9WRA1iyjJDVMyc6Ai84ZSU5S0wWufFvnrXd7wkY6X5FbFHfC+8MlO5tTobcSfbT0kG1xC3u9xvcWEmKnOXXTN2uGp/eQuM1nneOqx0htVYaX5F7DVtYtZBsbyIxqaOkbLe5S0w2uf5KgXusN5YaX5F7Me5/3ARrnRMxiXDKSnLW2C0z/PVu14LSb0mHufwDxkJHNXE/hHrGY3FUNa0wGid5yeyYqZznQsN86+YkCn2x37CcuZPYybl2hYYzXleSoFrxTNKBl6yy8EWvhNV1qCdkjJS1H//KkPngQ6yXQBUJlIMbwqMH9V+zwMcvKlLtB88g97WNBUYK+q/g7HzMrE5Z6RuOpMC/0V5QXvM2uPg5W2qfKMUoPyWduyMF/VPY/g8Ahb25pzRQtBcO0CtHa26c3ufg310qd8EUKdi4KfMaC3jRf3TGDwPjZdks1qFw5sqgn2TAg5GRddr0eXgMM/o0eE/7U3KqaXqRFH/JIbOA5rSfLtaxQQu5ZPI0ij2tNupp83BBCtoZ9SJ7QobQ4lT0wtkoqh/EgPnkUwrxlsjK1iRhpSyXeP7Cf0tDpYwMtIypocmqtQpKTHVeshUUf8UBs4r7fy3MWEl1rN6Md6L3+Vg+aIlxYI2MXugeeJct66YLOqfQP+8WNjXtTGVyGryMppeMUZzMLbz0MPCf/bfArgpKZnu2TJV1D+F7nnkpXaEbUtYqWzOgt51z5Ck7pt/ZPafG0ORNpo6UdQ/ifZ5eVMhtimy0nhHVBPiHIFqMnTXdIn2hHYmycYc6hZaCdVbElaa1BRyT4yEDi9vWs9oG6JO7Mefzly0Umw2JKw4CaflHYbPG3/9gcuZd1NSEn+vV7Vmig1qlXCrkKdN+sxlkaPcf72UFOVvzuy8n9UJK+40Ht6ZfVJXjzrK/ddLSSn8eXfSNmuOehfvwY0330uoavUXOMj91w/M32OFBeg2UFibVuAWRt0nqjPPziq78o9+Sgr3ZzKLTp7OSrXKa0eTByDedMNrsMZy3PJ73kl2H+H9u/KMw1cFfwD4Y9eSefDPnfjrmKjROLEWEzUaJ9biJOoOwMx39Rfm8UdCYj3GD6yq/achRcR5tGVBnBM96KqX3L9gnSrvvHtcaGtItXuBjN/beDLvsdAT1Q6z1VR5593jqu6odtmx0ZOPCwdMQ3Nq+cOICpyaiYpT5Tjlfi5RaSGpf7eaLu9UujY0IKbBnjT1n9yUc/BcKx14HLdloLFquk9r/iRKqgKJymOFR8sYrqEbWuZxAB+QqKEuRP1ZkCJh29cZ7wOIpTvrpQGPsDY0NtWjulQ0FVSXgWJP+boMlJhGus1qCPrmMO1KBAT2o1dM4ZGMYNyI6foehc45+gPSV3vge4h7IJYSPFApwUAooYxHaYBZhKUogFgxJvKFLMHjsCehFBnmGPE6r9ISNeIEPmH3Vs4iHYrF4jGWcp5oonJcbUkdnRT4KACxYkHLMDAVdyC1M5Hi6I5Q1IQBZUphWWhVBkrTAEZM0/baEjWvPsUlM68JKBni5kITVReilj9VtvoGyso8FSLVHIok4Jj0kgS29k6YitGmDBTEQMYaz7clqqkvC2HQJzQyiYBIycL07MOPphB1r8dwdTsXHDPo7/cqNIfYi7SPH7zmneuhTI0xSzjGeu8gEzyG8R6JMMLAVKIo/lfEhqgBloFy4OOinjJbRE0w6YDVRA1RiOaWqKUuRL33eGvh6nYudF17ozKNlKfZQyqvfkvFGrzmnbvRMrXg8BdrQ2OWBhELQRCCiFTwVypRkgIoAsdlIBpzFI8JCWkV/+0QlfBM1EQNUqZiO1FhIWq2XxBCZMOcSmxBcXXYJFHhAmna5dT+yo6ziFqVd2JOO0wnIdWvHKUAK1En0FvxOPyYAO9hTWlFnhZRsdqUYj8ES1SuGDUTlW6m4LkDsYuGWmEuUYvDQQFKXkVUqbVGhYst2q4iMsZlSUKFyyI0ZNLquFTouyK51hzh4FjGRh8MlWwueE+U8crQNG+6Wmva/JJT+1l9HLdt23tQZy3qdU739F3WRMUeIqafgHnNZvgngjKBJde0rLqKgNon8hLVx7RLVCWYyApUNJnWsSOtIZrt1FwQl1Ngx7i3IhrHm1ZFng0rDQOtxfWIiuod0EHTvuoqokRMQjNAwx5RM64bj2D2LxIVxFaOV8HN9oIJrlt4iEsjTISIHuIERo0NoLVj26PF5dQgLPRyCppCpquIcVWQApuP9IiqLUqpMIkKT9Hp6hJ7P5imLzDTZAr2/nK1uxr+WotDGuH/NVF1u5DUEtV2FVE41WYwXyQDRA10fgbNLFEj2x+D4GZD1GhXDfFnoC7+b7Q45CpL1Nh+M5xquoqoyLRpRr4cIipm5csWUXV3rcwSFTXwn+fM8AurUqEFGMsUiZqSgjVEzQP8BoeFVVcRJCq+AtBYhogK1jYnaYuo2J9EmaOJSCVJf3vIwE5UERY8CXT3KBjYjUxFpRFFYCqiqquIVvsSVCZFPsSp2G8woplDVLw2jcy0hslbPrpm/ysgZjJvByKIowy6XUXIuMnJu6YEUdwIEbP3j0Vh9wrn06jIe33F/gr2ImoRCZb8cjl64sSJEydOnDhx4sSJEydOnDhx4sSJEydOnDhx4sSJEyf2A3/9PKPOvnG9XC5fR9/EP43/3hD/uZtu/Hb5OOp+fgNe3z+Cz8+P91dg0K/gdg3gG5D1glu/rpx/Xm8Bv15hN8d/9AGvt+sNvnxdYd/t+mkvdL3ygH+i4Li+wt7P698VIW/ft/e376/vtyB4/w4+Lq/8cg1eL5fX4O3yfvl8f3+73D4u35fgE75ebq8XOOUK+9/fr7Dh+nX5fn/H63zAt1fYjmdeLvDt/Q8z+/vT+8cT5zegzOfl63L5vl54AGT8AKIGQEMg1OfHBbgOOJq/XyuifgY32AAHvr9+Xm5wHXgVAf94w7cUAF3f30AyH/1sh+H99n7T/+PfywXmKM1gb2/4BwhzxaH/cfm8AaWC77eKqPDlguP+7f2KQiD4wi2askBLZPO34PUPE5UDxz1pTgV6fMDQvQUf10/kVCDq6+Xj6wpiFdj37e3r8/L5dfl8vRiifr+/fn2BvPj6+PpC1vx6fQW+RRn954n69vH6/v39Hw7cgANBr98oHy9vN01U/Hj5/IbvwesbMDFHbrZE/ULG5vj9C0TuK367wZHft5OowFkwgevZH+gEhEVhoP8x4LjjS3+/6en8q5nUb7j5Vp2kdzhn/mUM6KknTvw5/A94DgPbuotuYQAAAABJRU5ErkJggg==;" vertex="1" parent="18">
                    <mxGeometry x="400" y="140" width="340" height="231" as="geometry"/>
                </mxCell>
                <mxCell id="24" value="Number..." style="rounded=1;whiteSpace=wrap;html=1;align=left;" vertex="1" parent="18">
                    <mxGeometry x="30" y="140" width="300" height="20" as="geometry"/>
                </mxCell>
                <mxCell id="25" value="Please enter in the length of the 3 sides of your triangle." style="text;html=1;align=left;verticalAlign=middle;resizable=0;points=[];autosize=1;strokeColor=none;fillColor=none;fontSize=20;fontColor=light-dark(#000000,#FFFFFF);" vertex="1" parent="1">
                    <mxGeometry x="75" y="110" width="520" height="40" as="geometry"/>
                </mxCell>
                <mxCell id="26" value="" style="whiteSpace=wrap;html=1;" vertex="1" parent="1">
                    <mxGeometry x="45" y="43" width="760" height="55" as="geometry"/>
                </mxCell>
                <mxCell id="27" value="What Kind of Triangle, in JavaScript" style="text;html=1;align=center;verticalAlign=middle;resizable=0;points=[];autosize=1;strokeColor=none;fillColor=none;fontSize=30;fontStyle=1" vertex="1" parent="1">
                    <mxGeometry x="175" y="45.5" width="500" height="50" as="geometry"/>
                </mxCell>
            </root>
        </mxGraphModel>
    </diagram>
</mxfile>